# Blender v2.93.2 OBJ File: 'goblin_base_export-version.blend'
# www.blender.org
mtllib maxdamage_goblin-low-poly_mesh.mtl
o Goblin_Goblin.Mesh
v -0.089756 0.431244 -0.145006
v -0.093150 1.003742 0.097458
v -0.119436 0.947266 -0.011597
v -0.088384 0.787202 0.142044
v -0.117003 0.893146 0.149794
v -0.043290 0.806798 0.165848
v -0.069594 0.775315 0.036386
v -0.088237 0.784791 0.143849
v -0.064900 0.682946 -0.046082
v -0.214012 0.649541 -0.192238
v -0.102889 0.509411 -0.117880
v -0.117848 0.598098 -0.016575
v -0.128288 0.357072 -0.141276
v -0.272717 1.029185 -0.109353
v -0.072719 0.967722 0.049311
v -0.091008 0.875805 0.002169
v -0.048360 0.937486 -0.016971
v -0.240380 0.410298 -0.214993
v -0.201248 0.654073 -0.125587
v -0.174478 0.664277 -0.226506
v -0.242084 0.668375 -0.189059
v -0.190929 0.211435 -0.090923
v -0.244754 0.457527 -0.165035
v -0.206943 0.416713 -0.253973
v -0.277451 0.417810 -0.222081
v -0.110557 0.180075 -0.092740
v -0.046942 0.349739 -0.064576
v -0.051546 0.312072 -0.203801
v -0.126526 0.363952 -0.140182
v -0.099423 0.004838 -0.087374
v -0.150048 0.200739 -0.074418
v -0.063910 0.204849 -0.069036
v -0.104223 0.185726 -0.147109
v -0.201645 0.211284 -0.128929
v -0.210159 0.239900 -0.070536
v -0.172976 0.246186 -0.081962
v -0.195576 0.170154 -0.029221
v -0.186786 0.140893 -0.087252
v -0.163999 0.203371 -0.056582
v -0.162556 0.174003 -0.111031
v -0.172109 0.216656 -0.137301
v -0.207742 0.238737 -0.070281
v -0.175145 0.244097 -0.080202
v -0.203327 0.215324 -0.056316
v -0.168997 0.218008 -0.064873
v -0.188398 0.261224 -0.017669
v -0.190119 0.156999 -0.059249
v -0.166738 0.199003 -0.056769
v -0.193742 0.169686 -0.034579
v -0.167252 0.185873 -0.078007
v -0.158758 0.131337 -0.028713
v -0.186189 0.143024 -0.086263
v -0.167157 0.184321 -0.080935
v -0.190029 0.155007 -0.061870
v -0.166520 0.170733 -0.104569
v -0.156306 0.112573 -0.055409
v -0.126310 0.023583 -0.105664
v -0.069200 0.022607 -0.092870
v -0.070459 -0.008988 -0.097557
v -0.082907 0.021643 -0.011659
v -0.140172 0.022471 -0.023693
v -0.078862 -0.009604 -0.047688
v -0.139458 -0.007890 -0.060115
v -0.131793 -0.006710 -0.110519
v -0.108390 0.019685 -0.018773
v -0.081549 -0.006164 -0.044937
v -0.087474 0.019731 -0.014448
v -0.106158 -0.004148 -0.048686
v -0.103577 -0.001446 0.025221
v -0.138109 0.021552 -0.024576
v -0.109400 -0.004078 -0.049372
v -0.111675 0.019846 -0.018932
v -0.136237 -0.003201 -0.054132
v -0.136202 -0.001576 0.022686
v 0.000000 0.644265 0.209302
v 0.000000 1.017812 0.112321
v 0.000000 0.970920 -0.093724
v 0.000000 0.547129 0.005769
v 0.000000 0.901375 0.182997
v 0.089756 0.431244 -0.145006
v 0.000000 0.808997 -0.054397
v 0.000000 0.791901 0.186411
v 0.093150 1.003742 0.097458
v 0.119436 0.947266 -0.011597
v 0.088384 0.787202 0.142044
v 0.117003 0.893146 0.149794
v 0.000000 0.884819 0.181253
v 0.000000 0.797933 0.337344
v 0.043290 0.806798 0.165848
v 0.000000 0.805922 0.185233
v 0.069594 0.775315 0.036386
v 0.000000 0.424096 -0.199318
v 0.000000 0.791376 0.188823
v 0.088237 0.784791 0.143849
v 0.000000 0.756262 0.044650
v 0.000000 0.668324 -0.024685
v 0.000000 0.715649 -0.130245
v 0.064900 0.682946 -0.046082
v 0.000000 0.609096 0.011116
v 0.000000 0.315961 -0.057306
v 0.214012 0.649541 -0.192238
v 0.000000 0.580803 -0.226307
v 0.102889 0.509411 -0.117880
v 0.000000 0.304750 -0.218368
v 0.000000 0.415842 -0.064460
v 0.000000 0.509096 -0.212733
v 0.117848 0.598098 -0.016575
v 0.128288 0.357072 -0.141276
v 0.272717 1.029185 -0.109353
v 0.072719 0.967722 0.049311
v 0.091008 0.875805 0.002169
v 0.048360 0.937486 -0.016971
v 0.000000 0.506387 -0.035112
v 0.240380 0.410298 -0.214993
v 0.201248 0.654073 -0.125587
v 0.174478 0.664277 -0.226506
v 0.242084 0.668375 -0.189059
v 0.190929 0.211435 -0.090923
v 0.244754 0.457527 -0.165035
v 0.206943 0.416713 -0.253973
v 0.277451 0.417810 -0.222081
v 0.110557 0.180075 -0.092740
v 0.046942 0.349739 -0.064576
v 0.051546 0.312072 -0.203801
v 0.126526 0.363952 -0.140182
v 0.099423 0.004838 -0.087374
v 0.150048 0.200739 -0.074418
v 0.063910 0.204849 -0.069036
v 0.104223 0.185726 -0.147109
v 0.201645 0.211284 -0.128929
v 0.210159 0.239900 -0.070536
v 0.172976 0.246186 -0.081962
v 0.195576 0.170154 -0.029221
v 0.186786 0.140893 -0.087252
v 0.163999 0.203371 -0.056582
v 0.162556 0.174003 -0.111031
v 0.172109 0.216656 -0.137301
v 0.207742 0.238737 -0.070281
v 0.175145 0.244097 -0.080202
v 0.203327 0.215324 -0.056316
v 0.168997 0.218008 -0.064873
v 0.188398 0.261224 -0.017669
v 0.190119 0.156999 -0.059249
v 0.166738 0.199003 -0.056769
v 0.193742 0.169686 -0.034579
v 0.167252 0.185873 -0.078007
v 0.158758 0.131337 -0.028713
v 0.186189 0.143024 -0.086263
v 0.167157 0.184321 -0.080935
v 0.190029 0.155007 -0.061870
v 0.166520 0.170733 -0.104569
v 0.156306 0.112573 -0.055409
v 0.126310 0.023583 -0.105664
v 0.069200 0.022607 -0.092870
v 0.070459 -0.008988 -0.097557
v 0.082907 0.021643 -0.011659
v 0.140172 0.022471 -0.023693
v 0.078862 -0.009604 -0.047688
v 0.139458 -0.007890 -0.060115
v 0.131793 -0.006710 -0.110519
v 0.108390 0.019685 -0.018773
v 0.081549 -0.006164 -0.044937
v 0.087474 0.019731 -0.014448
v 0.106158 -0.004148 -0.048686
v 0.103577 -0.001446 0.025221
v 0.138109 0.021552 -0.024576
v 0.109400 -0.004078 -0.049372
v 0.111675 0.019846 -0.018932
v 0.136237 -0.003201 -0.054132
v 0.136202 -0.001576 0.022686
vt 0.300443 0.171884
vt 0.147712 0.165484
vt 0.240578 0.227757
vt 0.607970 0.377752
vt 0.534654 0.230931
vt 0.469781 0.338127
vt 0.387709 0.185728
vt 0.455906 0.161562
vt 0.530051 0.130066
vt 0.440368 0.089426
vt 0.368530 0.095148
vt 0.438192 0.026575
vt 0.373759 0.024003
vt 0.508693 0.019713
vt 0.788599 0.094254
vt 0.636810 0.099185
vt 0.640434 0.200607
vt 0.913398 0.368744
vt 0.913398 0.223648
vt 0.842596 0.243536
vt 0.828025 0.279206
vt 0.730404 0.408050
vt 0.755105 0.291541
vt 0.685392 0.303122
vt 0.066386 0.397573
vt 0.227073 0.434714
vt 0.112941 0.341507
vt 0.195427 0.288883
vt 0.063636 0.263261
vt 0.034169 0.311051
vt 0.270807 0.580912
vt 0.171750 0.629329
vt 0.051101 0.485341
vt 0.132808 0.587024
vt 0.278123 0.646509
vt 0.097810 0.233339
vt 0.206241 0.687698
vt 0.735411 0.739512
vt 0.797910 0.943469
vt 0.797910 0.732798
vt 0.621244 0.828702
vt 0.660594 0.780284
vt 0.329104 0.688297
vt 0.329104 0.019713
vt 0.181900 0.075159
vt 0.734392 0.512533
vt 0.621244 0.693372
vt 0.780410 0.555354
vt 0.816051 0.606563
vt 0.834532 0.689740
vt 0.834532 0.523385
vt 0.481678 0.512533
vt 0.368530 0.693372
vt 0.527695 0.555354
vt 0.563337 0.606563
vt 0.581818 0.689740
vt 0.581818 0.523385
vt 0.368530 0.776967
vt 0.391085 0.923320
vt 0.458556 0.784018
vt 0.520341 0.849324
vt 0.532925 0.965851
vt 0.532925 0.732798
vt 0.910242 0.163534
vt 0.828025 0.019713
vt 0.837984 0.174164
vt 0.980287 0.047470
vt 0.961729 0.115846
vt 0.980287 0.184222
vt 0.082586 0.760134
vt 0.085146 0.791430
vt 0.134813 0.797083
vt 0.066764 0.872008
vt 0.127878 0.837125
vt 0.078919 0.831247
vt 0.067222 0.937641
vt 0.035754 0.901121
vt 0.036051 0.941422
vt 0.118992 0.873855
vt 0.119425 0.940107
vt 0.144122 0.902077
vt 0.144122 0.942715
vt 0.133414 0.772288
vt 0.286022 0.936667
vt 0.228842 0.932555
vt 0.281102 0.957794
vt 0.286022 0.936667
vt 0.228842 0.932555
vt 0.281102 0.957794
vt 0.267609 0.910019
vt 0.251607 0.895119
vt 0.228842 0.875040
vt 0.267609 0.910019
vt 0.251607 0.895119
vt 0.228842 0.875040
vt 0.286022 0.936667
vt 0.228842 0.932555
vt 0.281102 0.957794
vt 0.267609 0.910019
vt 0.251607 0.895119
vt 0.228842 0.875040
vt 0.082586 0.760134
vt 0.085146 0.791430
vt 0.134813 0.797083
vt 0.066764 0.872008
vt 0.127878 0.837125
vt 0.078919 0.831247
vt 0.067222 0.937641
vt 0.035754 0.901121
vt 0.036051 0.941422
vt 0.118992 0.873855
vt 0.119425 0.940107
vt 0.144122 0.902077
vt 0.144122 0.942715
vt 0.133414 0.772288
vt 0.286022 0.936667
vt 0.228842 0.932555
vt 0.281102 0.957794
vt 0.267609 0.910019
vt 0.251607 0.895119
vt 0.228842 0.875040
vt 0.286022 0.936667
vt 0.228842 0.932555
vt 0.281102 0.957794
vt 0.267609 0.910019
vt 0.251607 0.895119
vt 0.228842 0.875040
vt 0.300443 0.171884
vt 0.240578 0.227757
vt 0.534654 0.230931
vt 0.455906 0.161562
vt 0.530051 0.130066
vt 0.440368 0.089426
vt 0.438192 0.026575
vt 0.508693 0.019713
vt 0.640434 0.200607
vt 0.842596 0.243536
vt 0.730404 0.408050
vt 0.685392 0.303122
vt 0.066386 0.397573
vt 0.112941 0.341507
vt 0.227073 0.434714
vt 0.656108 0.473107
vt 0.195427 0.288883
vt 0.270807 0.580912
vt 0.278123 0.646509
vt 0.735411 0.739512
vt 0.797910 0.732798
vt 0.797910 0.943469
vt 0.621244 0.828702
vt 0.660594 0.780284
vt 0.329104 0.688297
vt 0.240635 0.776489
vt 0.734392 0.512533
vt 0.780410 0.555354
vt 0.621244 0.693372
vt 0.816051 0.606563
vt 0.834532 0.689740
vt 0.834532 0.523385
vt 0.481678 0.512533
vt 0.527695 0.555354
vt 0.368530 0.693372
vt 0.563337 0.606563
vt 0.581818 0.689740
vt 0.581818 0.523385
vt 0.368530 0.776967
vt 0.458556 0.784018
vt 0.391085 0.923320
vt 0.520341 0.849324
vt 0.532925 0.965851
vt 0.532925 0.732798
vt 0.910242 0.163534
vt 0.837984 0.174164
vt 0.828025 0.019713
vt 0.980287 0.047470
vt 0.961729 0.115846
vt 0.980287 0.184222
vt 0.082586 0.760134
vt 0.134813 0.797083
vt 0.085146 0.791430
vt 0.066764 0.872008
vt 0.078919 0.831247
vt 0.127878 0.837125
vt 0.067222 0.937641
vt 0.035754 0.901121
vt 0.118992 0.873855
vt 0.119425 0.940107
vt 0.144122 0.902077
vt 0.133414 0.772288
vt 0.286022 0.936667
vt 0.281102 0.957794
vt 0.228842 0.932555
vt 0.286022 0.936667
vt 0.281102 0.957794
vt 0.228842 0.932555
vt 0.267609 0.910019
vt 0.251607 0.895119
vt 0.228842 0.875040
vt 0.267609 0.910019
vt 0.251607 0.895119
vt 0.228842 0.875040
vt 0.286022 0.936667
vt 0.281102 0.957794
vt 0.228842 0.932555
vt 0.267609 0.910019
vt 0.251607 0.895119
vt 0.228842 0.875040
vt 0.082586 0.760134
vt 0.134813 0.797083
vt 0.085146 0.791430
vt 0.066764 0.872008
vt 0.078919 0.831247
vt 0.127878 0.837125
vt 0.067222 0.937641
vt 0.035754 0.901121
vt 0.118992 0.873855
vt 0.119425 0.940107
vt 0.144122 0.902077
vt 0.133414 0.772288
vt 0.286022 0.936667
vt 0.281102 0.957794
vt 0.228842 0.932555
vt 0.267609 0.910019
vt 0.251607 0.895119
vt 0.228842 0.875040
vt 0.286022 0.936667
vt 0.281102 0.957794
vt 0.228842 0.932555
vt 0.267609 0.910019
vt 0.251607 0.895119
vt 0.228842 0.875040
vt 0.788599 0.385671
vt 0.019713 0.365335
vt 0.036051 0.941422
vt 0.144122 0.942715
vt 0.036051 0.941422
vt 0.144122 0.942715
vn -0.9765 -0.2141 -0.0244
vn 0.0000 -0.0775 0.9970
vn -0.9746 0.1298 -0.1822
vn 0.0000 0.0291 -0.9996
vn -0.8491 0.2485 -0.4662
vn 0.0000 0.4530 -0.8915
vn 0.0000 0.9091 0.4165
vn -0.5679 0.7731 0.2824
vn -0.8013 0.0401 0.5969
vn 0.0000 0.2264 0.9740
vn -0.8456 -0.2009 0.4946
vn 0.0000 0.0312 0.9995
vn -0.8448 -0.4874 -0.2207
vn 0.0000 -0.8374 0.5465
vn 0.0000 0.1379 0.9904
vn -0.8629 -0.3949 0.3154
vn 0.0000 -0.2047 0.9788
vn 0.0000 0.8737 0.4863
vn -0.9383 -0.2641 0.2232
vn 0.0000 -0.9986 -0.0524
vn -0.6978 0.5211 0.4914
vn 0.0000 -0.9962 0.0863
vn -0.8690 0.2671 -0.4164
vn -0.6473 -0.0707 0.7589
vn -0.8231 -0.5624 0.0788
vn 0.0000 -0.5007 0.8656
vn 0.0000 0.2167 0.9762
vn 0.0000 -0.2878 -0.9577
vn 0.0000 0.8422 -0.5390
vn 0.0000 0.1351 -0.9908
vn 0.0000 -0.5676 0.8233
vn 0.0000 0.0241 -0.9997
vn -0.5503 -0.8072 -0.2135
vn -0.7873 0.3981 -0.4707
vn 0.4716 0.3303 -0.8176
vn -0.2383 0.7659 0.5971
vn 0.0000 -0.6528 -0.7575
vn 0.0000 -0.6172 0.7868
vn 0.6012 0.4846 -0.6354
vn -0.1340 -0.9817 -0.1348
vn -0.7493 0.6494 -0.1293
vn 0.1902 0.3269 0.9257
vn 0.5116 0.2055 -0.8343
vn 0.2033 -0.8542 0.4784
vn -0.8847 0.1508 -0.4411
vn -0.0704 0.8379 0.5411
vn 0.4193 0.0238 -0.9075
vn -0.2149 -0.9429 0.2543
vn -0.6909 0.7044 -0.1625
vn 0.4733 0.4667 0.7471
vn 0.7068 0.5582 0.4345
vn 0.0346 -0.9979 0.0551
vn 0.0221 0.3176 -0.9480
vn -0.7885 0.4993 0.3589
vn -0.6843 0.6545 0.3213
vn 0.4617 0.8810 0.1032
vn 0.3940 0.2883 -0.8727
vn -0.2210 -0.4339 0.8734
vn 0.7302 -0.4772 -0.4888
vn 0.8054 0.1427 0.5753
vn -0.0895 -0.9944 -0.0559
vn -0.6907 0.1029 -0.7157
vn 0.9157 0.2412 0.3214
vn 0.4311 -0.7747 0.4626
vn 0.9030 -0.2020 -0.3791
vn 0.5699 0.8153 -0.1025
vn 0.0174 0.5404 0.8412
vn 0.8211 -0.2108 0.5304
vn -0.7711 0.6365 0.0115
vn -0.4597 -0.4797 0.7473
vn -0.2363 -0.0673 0.9693
vn -0.2595 -0.8539 -0.4511
vn 0.9030 0.2586 0.3429
vn 0.4028 -0.8047 0.4362
vn 0.9201 -0.1458 -0.3636
vn -0.2413 -0.0442 0.9694
vn -0.3003 -0.8081 -0.5067
vn 0.6971 0.5929 -0.4031
vn 0.6491 -0.5632 -0.5112
vn -0.5188 -0.4670 -0.7161
vn 0.4030 0.2719 0.8739
vn -0.7431 -0.6537 0.1431
vn 0.5434 -0.7558 0.3654
vn -0.6522 0.3065 0.6933
vn -0.3999 0.6650 -0.6307
vn 0.2999 -0.9409 0.1574
vn -0.1356 -0.2161 0.9669
vn -0.4565 -0.8884 0.0484
vn 0.7418 0.4181 0.5243
vn -0.8899 0.3655 0.2729
vn 0.3155 -0.9370 0.1499
vn -0.2056 -0.2250 0.9524
vn -0.4484 -0.8936 0.0191
vn 0.7839 0.2260 0.5783
vn -0.8639 0.4377 0.2491
vn 0.9765 -0.2141 -0.0244
vn 0.9746 0.1298 -0.1822
vn 0.8491 0.2485 -0.4662
vn 0.5679 0.7731 0.2824
vn 0.8013 0.0401 0.5969
vn 0.8456 -0.2009 0.4946
vn 0.8448 -0.4874 -0.2207
vn 0.8629 -0.3949 0.3154
vn 0.9383 -0.2641 0.2232
vn 0.6978 0.5211 0.4914
vn 0.6473 -0.0707 0.7589
vn 0.8690 0.2671 -0.4164
vn 0.8231 -0.5624 0.0788
vn 0.5503 -0.8072 -0.2135
vn -0.4716 0.3303 -0.8176
vn 0.7873 0.3981 -0.4707
vn 0.2383 0.7659 0.5971
vn -0.6012 0.4846 -0.6354
vn 0.7493 0.6494 -0.1293
vn 0.1340 -0.9817 -0.1348
vn -0.1902 0.3269 0.9257
vn -0.5116 0.2055 -0.8343
vn 0.8847 0.1508 -0.4411
vn -0.2033 -0.8542 0.4784
vn 0.0704 0.8379 0.5411
vn -0.4193 0.0238 -0.9075
vn 0.6909 0.7044 -0.1625
vn 0.2149 -0.9429 0.2543
vn -0.4733 0.4667 0.7471
vn -0.7068 0.5582 0.4345
vn -0.0221 0.3176 -0.9480
vn -0.0346 -0.9979 0.0551
vn 0.7885 0.4993 0.3589
vn 0.6843 0.6545 0.3213
vn -0.3940 0.2883 -0.8727
vn -0.4617 0.8810 0.1032
vn 0.2210 -0.4339 0.8734
vn -0.8054 0.1427 0.5753
vn -0.7302 -0.4772 -0.4888
vn 0.0895 -0.9944 -0.0559
vn 0.6907 0.1029 -0.7157
vn -0.9157 0.2412 0.3214
vn -0.9030 -0.2020 -0.3791
vn -0.4311 -0.7747 0.4626
vn -0.5699 0.8153 -0.1025
vn -0.8211 -0.2108 0.5304
vn -0.0174 0.5404 0.8412
vn 0.7711 0.6365 0.0115
vn 0.4597 -0.4797 0.7473
vn 0.2363 -0.0673 0.9693
vn 0.2595 -0.8539 -0.4511
vn -0.9030 0.2586 0.3429
vn -0.9201 -0.1458 -0.3636
vn -0.4028 -0.8047 0.4362
vn 0.2413 -0.0442 0.9694
vn 0.3003 -0.8081 -0.5067
vn -0.6971 0.5929 -0.4031
vn 0.5188 -0.4670 -0.7161
vn -0.6491 -0.5632 -0.5112
vn -0.4030 0.2719 0.8739
vn -0.5434 -0.7558 0.3654
vn 0.7431 -0.6537 0.1431
vn 0.6522 0.3065 0.6933
vn 0.3999 0.6650 -0.6307
vn -0.2999 -0.9409 0.1574
vn 0.4565 -0.8884 0.0484
vn 0.1356 -0.2161 0.9669
vn -0.7418 0.4181 0.5243
vn 0.8899 0.3655 0.2729
vn -0.3155 -0.9370 0.1499
vn 0.4484 -0.8936 0.0191
vn 0.2056 -0.2250 0.9524
vn -0.7839 0.2260 0.5783
vn 0.8639 0.4377 0.2491
vn 0.0000 0.0213 0.9998
g Goblin_Goblin.Mesh_goblin.mat
usemtl goblin.mat
s 1
f 13/1/1 105/2/2 1/3/3
f 81/4/4 3/5/5 77/6/6
f 76/7/7 77/6/6 2/8/8
f 3/9/5 5/10/9 2/8/8
f 3/5/5 2/8/8 77/6/6
f 79/11/10 4/12/11 82/13/12
f 3/9/5 7/14/13 5/10/9
f 79/11/10 2/8/8 5/10/9
f 75/15/14 93/16/15 8/17/16
f 88/18/17 87/19/18 6/20/19
f 6/20/19 90/21/20 88/18/17
f 9/22/21 95/23/22 7/24/13
f 7/24/13 75/15/14 8/17/16
f 5/10/9 7/14/13 4/12/11
f 81/4/4 7/24/13 3/5/5
f 9/25/21 10/26/23 12/27/24
f 95/23/22 75/15/14 7/24/13
f 81/4/4 9/22/21 7/24/13
f 10/26/23 11/28/25 12/27/24
f 78/29/26 99/30/27 12/27/24
f 11/31/25 10/26/23 106/32/28
f 97/33/29 102/34/30 10/26/23
f 11/28/25 1/3/3 105/2/2
f 11/31/25 106/32/28 1/35/3
f 11/28/25 113/36/31 78/29/26
f 106/32/28 92/37/32 1/35/3
f 11/28/25 78/29/26 12/27/24
f 99/30/27 9/25/21 12/27/24
f 106/32/28 10/26/23 102/34/30
f 113/36/31 11/28/25 105/2/2
f 16/38/33 14/39/34 17/40/35
f 17/41/35 14/39/34 15/42/36
f 15/42/36 14/39/34 16/38/33
f 97/33/29 10/26/23 9/25/21
f 92/37/32 13/43/1 1/35/3
f 104/44/37 100/45/38 13/1/1
f 20/46/39 18/47/40 21/48/41
f 21/48/41 18/47/40 19/49/42
f 19/49/42 18/47/40 20/50/39
f 20/51/39 21/48/41 19/49/42
f 24/52/43 22/53/44 25/54/45
f 25/54/45 22/53/44 23/55/46
f 23/55/46 22/53/44 24/56/43
f 24/57/43 25/54/45 23/55/46
f 28/58/47 26/59/48 29/60/49
f 29/60/49 26/59/48 27/61/50
f 27/61/50 26/59/48 28/62/47
f 28/63/47 29/60/49 27/61/50
f 32/64/51 30/65/52 33/66/53
f 33/67/53 30/65/52 31/68/54
f 31/68/54 30/65/52 32/64/51
f 32/64/51 33/69/53 31/68/54
f 35/70/55 36/71/56 41/72/57
f 37/73/58 40/74/59 39/75/60
f 35/76/55 39/77/60 36/78/56
f 36/71/56 40/74/59 41/72/57
f 38/79/61 35/76/55 34/80/62
f 40/74/59 37/73/58 38/79/61
f 40/81/59 34/80/62 41/82/57
f 41/72/57 34/83/62 35/70/55
f 48/84/63 51/85/64 50/86/65
f 43/87/66 46/88/67 45/89/68
f 42/90/69 46/88/67 43/87/66
f 44/91/70 46/88/67 42/90/69
f 45/92/68 46/88/67 44/91/70
f 49/93/71 51/85/64 48/84/63
f 47/94/72 51/85/64 49/93/71
f 50/95/65 51/85/64 47/94/72
f 53/96/73 56/97/74 55/98/75
f 54/99/76 56/97/74 53/96/73
f 52/100/77 56/97/74 54/99/76
f 55/101/75 56/97/74 52/100/77
f 58/102/78 59/103/79 64/104/80
f 60/105/81 63/106/82 62/107/83
f 58/108/78 62/109/83 59/110/79
f 59/103/79 63/106/82 64/104/80
f 61/111/84 58/108/78 57/112/85
f 63/106/82 60/105/81 61/111/84
f 63/113/82 57/112/85 64/114/80
f 64/104/80 57/115/85 58/102/78
f 66/116/86 69/117/87 68/118/88
f 67/119/89 69/117/87 66/116/86
f 65/120/90 69/117/87 67/119/89
f 68/121/88 69/117/87 65/120/90
f 71/122/91 74/123/92 73/124/93
f 72/125/94 74/123/92 71/122/91
f 70/126/95 74/123/92 72/125/94
f 73/127/93 74/123/92 70/126/95
f 105/2/2 108/128/96 80/129/97
f 81/4/4 77/6/6 84/130/98
f 76/7/7 83/131/99 77/6/6
f 84/132/98 83/131/99 86/133/100
f 84/130/98 77/6/6 83/131/99
f 79/11/10 85/134/101 86/133/100
f 84/132/98 86/133/100 91/135/102
f 83/131/99 79/11/10 86/133/100
f 75/15/14 94/136/103 93/16/15
f 88/18/17 89/137/104 87/19/18
f 89/137/104 88/18/17 90/21/20
f 95/23/22 98/138/105 91/139/102
f 91/139/102 94/136/103 75/15/14
f 86/133/100 85/134/101 91/135/102
f 81/4/4 84/130/98 91/139/102
f 98/140/105 107/141/106 101/142/107
f 95/23/22 91/139/102 75/15/14
f 81/4/4 98/138/105 97/143/29
f 101/142/107 107/141/106 103/144/108
f 78/29/26 107/141/106 99/30/27
f 103/145/108 106/32/28 101/142/107
f 97/33/29 101/142/107 102/34/30
f 103/144/108 105/2/2 80/129/97
f 103/145/108 80/146/97 106/32/28
f 103/144/108 78/29/26 113/36/31
f 106/32/28 80/146/97 92/37/32
f 103/144/108 107/141/106 78/29/26
f 98/140/105 99/30/27 107/141/106
f 106/32/28 102/34/30 101/142/107
f 113/36/31 105/2/2 103/144/108
f 111/147/109 112/148/110 109/149/111
f 112/150/110 110/151/112 109/149/111
f 110/151/112 111/147/109 109/149/111
f 97/33/29 98/140/105 101/142/107
f 92/37/32 108/152/96 104/153/37
f 104/44/37 108/128/96 100/45/38
f 116/154/113 117/155/114 114/156/115
f 117/155/114 115/157/116 114/156/115
f 115/157/116 116/158/113 114/156/115
f 116/159/113 115/157/116 117/155/114
f 120/160/117 121/161/118 118/162/119
f 121/161/118 119/163/120 118/162/119
f 119/163/120 120/164/117 118/162/119
f 120/165/117 119/163/120 121/161/118
f 124/166/121 125/167/122 122/168/123
f 125/167/122 123/169/124 122/168/123
f 123/169/124 124/170/121 122/168/123
f 124/171/121 123/169/124 125/167/122
f 128/172/125 129/173/126 126/174/127
f 129/175/126 127/176/128 126/174/127
f 127/176/128 128/172/125 126/174/127
f 128/172/125 127/176/128 129/177/126
f 131/178/129 137/179/130 132/180/131
f 133/181/132 135/182/133 136/183/134
f 131/184/129 135/185/133 133/181/132
f 132/180/131 136/183/134 135/182/133
f 131/184/129 134/186/135 130/187/136
f 136/183/134 134/186/135 133/181/132
f 136/188/134 130/187/136 134/186/135
f 137/179/130 131/178/129 130/189/136
f 144/190/137 146/191/138 147/192/139
f 139/193/140 141/194/141 142/195/142
f 138/196/143 139/193/140 142/195/142
f 140/197/144 138/196/143 142/195/142
f 141/198/141 140/197/144 142/195/142
f 145/199/145 144/190/137 147/192/139
f 143/200/146 145/199/145 147/192/139
f 146/201/138 143/200/146 147/192/139
f 149/202/147 151/203/148 152/204/149
f 150/205/150 149/202/147 152/204/149
f 148/206/151 150/205/150 152/204/149
f 151/207/148 148/206/151 152/204/149
f 154/208/152 160/209/153 155/210/154
f 156/211/155 158/212/156 159/213/157
f 154/214/152 158/215/156 156/211/155
f 155/210/154 159/213/157 158/212/156
f 154/214/152 157/216/158 153/217/159
f 159/213/157 157/216/158 156/211/155
f 159/218/157 153/217/159 157/216/158
f 160/209/153 154/208/152 153/219/159
f 162/220/160 164/221/161 165/222/162
f 163/223/163 162/220/160 165/222/162
f 161/224/164 163/223/163 165/222/162
f 164/225/161 161/224/164 165/222/162
f 167/226/165 169/227/166 170/228/167
f 168/229/168 167/226/165 170/228/167
f 166/230/169 168/229/168 170/228/167
f 169/231/166 166/230/169 170/228/167
f 13/1/1 100/45/38 105/2/2
f 79/11/10 5/10/9 4/12/11
f 79/11/10 76/7/7 2/8/8
f 9/22/21 96/232/170 95/23/22
f 81/4/4 97/143/29 9/22/21
f 99/30/27 96/233/170 9/25/21
f 92/37/32 104/153/37 13/43/1
f 35/76/55 37/73/58 39/77/60
f 36/71/56 39/75/60 40/74/59
f 38/79/61 37/73/58 35/76/55
f 40/81/59 38/79/61 34/80/62
f 58/108/78 60/105/81 62/109/83
f 59/103/79 62/107/83 63/106/82
f 61/111/84 60/105/81 58/108/78
f 63/113/82 61/111/84 57/112/85
f 105/2/2 100/45/38 108/128/96
f 79/11/10 82/13/12 85/134/101
f 83/131/99 76/7/7 79/11/10
f 95/23/22 96/232/170 98/138/105
f 81/4/4 91/139/102 98/138/105
f 98/140/105 96/233/170 99/30/27
f 92/37/32 80/146/97 108/152/96
f 131/184/129 132/234/131 135/185/133
f 132/180/131 137/179/130 136/183/134
f 131/184/129 133/181/132 134/186/135
f 136/188/134 137/235/130 130/187/136
f 154/214/152 155/236/154 158/215/156
f 155/210/154 160/209/153 159/213/157
f 154/214/152 156/211/155 157/216/158
f 159/218/157 160/237/153 153/217/159
